# xmcd
#
# Track frame offsets: 
#        150
#        20475
#        47475
#        69825
#        114600
#        135000
#        148500
#        169575
#        216750
#        252600
#
# Disc length: 3657 seconds
#
# Revision: 0
# Processed by: cddbd v1.5.2PL0 Copyright (c) Steve Scherf et al.
# Submitted via: ExactAudioCopy v0.95b3
#
DISCID=840e470a
DTITLE=Fleetwood Mac feat. Paul Butterfield - Carousel Ballroom, San F
DTITLE=rancisco CD1
DYEAR=1968
DGENRE=Blues
TTITLE0=Madison Blues
TTITLE1=My Baby's Gone
TTITLE2=My Baby's Skinny
TTITLE3=Worried Dream
TTITLE4=Dust My Broom
TTITLE5=Got To Move
TTITLE6=Worried Mind
TTITLE7=Instrumental
TTITLE8=Have You Ever Loved A Woman?
TTITLE9=Lazy Poker Blues
EXTD=
EXTT0=
EXTT1=
EXTT2=
EXTT3=
EXTT4=
EXTT5=
EXTT6=
EXTT7=
EXTT8=
EXTT9=
PLAYORDER=
